<svg id="Layer_1" data-name="Layer 1" xmlns="http://www.w3.org/2000/svg" viewBox="0 0 34 21.34"><defs><style>.cls-1{fill:#383838;}</style></defs><title>404</title><path class="cls-1" d="M18,7.33a4.9,4.9,0,0,0-4.89,4.92V23.78a4.91,4.91,0,0,0,9.81,0V12.25A4.88,4.88,0,0,0,18,7.33Zm2.25,16.45a2.23,2.23,0,0,1-4.46,0V12.25A2.21,2.21,0,0,1,18,10a2.24,2.24,0,0,1,2.25,2.25Z" transform="translate(-1 -7.33)"/><polygon class="cls-1" points="10.06 15.33 8.56 15.33 8.56 9.67 5.89 9.67 5.89 15.33 2.78 15.33 7.21 0.34 4.39 0.34 0 15.33 0 18.01 2 18.01 5.89 18.01 5.89 21 8.56 21 8.56 18.01 10.06 18.01 10.06 15.33"/><polygon class="cls-1" points="34 15.33 32.5 15.33 32.5 9.67 29.82 9.67 29.82 15.33 26.72 15.33 31.14 0.34 28.32 0.34 23.93 15.33 23.93 18.01 25.93 18.01 29.82 18.01 29.82 21 32.5 21 32.5 18.01 34 18.01 34 15.33"/></svg>